<?xml version="1.0" standalone="no"?>
<!DOCTYPE svg PUBLIC "-//W3C//DTD SVG 20010904//EN"
 "http://www.w3.org/TR/2001/REC-SVG-20010904/DTD/svg10.dtd">
<svg version="1.0" xmlns="http://www.w3.org/2000/svg"
 width="512.000000pt" height="512.000000pt" viewBox="0 0 512.000000 512.000000"
 preserveAspectRatio="xMidYMid meet">

<g transform="translate(0.000000,512.000000) scale(0.100000,-0.100000)"
fill="#000000" stroke="none">
<path d="M1447 4493 c-3 -4 -17 -51 -32 -103 -21 -73 -28 -126 -32 -227 -6
-139 2 -202 39 -326 20 -67 20 -69 2 -92 -11 -13 -40 -49 -66 -81 -84 -104
-135 -229 -169 -424 -16 -89 -22 -174 -26 -380 -7 -358 12 -468 113 -667 162
-318 471 -528 902 -613 157 -31 147 -25 121 -66 -56 -91 -80 -162 -99 -289
-18 -114 -22 -119 -130 -144 -211 -49 -413 -11 -573 107 -69 52 -122 112 -208
238 -81 119 -144 181 -225 222 -95 47 -242 68 -308 42 -23 -8 -25 -12 -15 -33
6 -13 35 -41 66 -63 73 -53 244 -293 378 -534 46 -83 77 -124 149 -195 77 -77
106 -98 186 -137 134 -65 208 -82 365 -82 72 -1 168 3 215 7 l85 9 -3 -264
c-2 -169 0 -273 7 -291 l11 -27 577 2 578 3 0 570 c0 647 0 652 -79 809 -42
83 -43 86 -22 91 11 2 62 12 111 21 520 97 884 402 995 833 29 112 38 255 29
467 -21 488 -68 653 -241 842 -24 27 -38 50 -35 60 3 9 17 58 31 107 48 160
46 316 -4 503 -31 115 -35 119 -101 103 -30 -7 -88 -29 -129 -49 -65 -31 -98
-59 -243 -201 l-167 -165 -63 31 c-156 77 -300 98 -662 97 -376 0 -552 -28
-678 -105 -27 -16 -52 -29 -56 -29 -4 0 -37 37 -74 83 -123 155 -241 251 -375
307 -75 32 -137 46 -145 33z"/>
</g>
</svg>
