<?xml version="1.0" standalone="no"?>
<!DOCTYPE svg PUBLIC "-//W3C//DTD SVG 20010904//EN"
 "http://www.w3.org/TR/2001/REC-SVG-20010904/DTD/svg10.dtd">
<svg version="1.0" xmlns="http://www.w3.org/2000/svg"
 width="512.000000pt" height="512.000000pt" viewBox="0 0 512.000000 512.000000"
 preserveAspectRatio="xMidYMid meet">

<g transform="translate(0.000000,512.000000) scale(0.100000,-0.100000)"
fill="#000000" stroke="none">
<path d="M1153 4132 c-134 -48 -225 -155 -253 -300 -32 -160 62 -337 218 -410
50 -24 70 -27 157 -27 93 0 105 2 167 33 291 143 285 554 -10 690 -76 35 -203
41 -279 14z"/>
<path d="M3314 3159 c-176 -17 -299 -73 -420 -194 -44 -44 -92 -96 -107 -115
l-26 -35 -1 137 c0 130 -1 138 -22 152 -19 14 -68 16 -333 16 -265 0 -314 -2
-333 -16 l-22 -15 0 -1043 c0 -998 1 -1044 18 -1059 16 -15 54 -17 333 -17
256 0 319 3 335 14 18 14 19 36 24 673 l5 658 33 64 c81 154 236 244 387 226
156 -19 250 -99 301 -255 17 -50 19 -114 24 -703 5 -627 6 -649 24 -663 16
-11 79 -14 338 -14 308 0 319 1 339 21 20 20 20 23 16 707 -5 751 -5 763 -66
939 -126 366 -443 562 -847 522z"/>
<path d="M962 3104 l-22 -15 0 -1044 c0 -935 2 -1045 16 -1059 13 -14 58 -16
339 -16 281 0 326 2 339 16 14 14 16 124 16 1059 l0 1044 -22 15 c-19 14 -68
16 -333 16 -265 0 -314 -2 -333 -16z"/>
</g>
</svg>
