<?xml version="1.0" standalone="no"?>
<!DOCTYPE svg PUBLIC "-//W3C//DTD SVG 20010904//EN"
 "http://www.w3.org/TR/2001/REC-SVG-20010904/DTD/svg10.dtd">
<svg version="1.0" xmlns="http://www.w3.org/2000/svg"
 width="1254.000000pt" height="1254.000000pt" viewBox="0 0 1254.000000 1254.000000"
 preserveAspectRatio="xMidYMid meet">

<g transform="translate(0.000000,1254.000000) scale(0.100000,-0.100000)"
fill="#000000" stroke="none">
<path d="M6065 10929 c-886 -60 -1724 -382 -2405 -925 -166 -133 -493 -458
-622 -619 -496 -619 -794 -1334 -895 -2145 -25 -204 -25 -725 0 -925 72 -565
197 -987 437 -1470 219 -443 464 -782 824 -1140 196 -196 300 -286 503 -437
357 -266 714 -467 1063 -598 41 -16 83 -31 93 -35 16 -7 17 17 17 407 l0 414
-87 43 c-680 334 -1236 837 -1605 1451 -370 614 -555 1358 -510 2042 24 361
93 686 216 1015 429 1152 1421 1969 2636 2172 378 63 794 58 1188 -15 671
-123 1290 -441 1795 -925 113 -108 120 -112 141 -98 13 8 151 115 309 238
l286 223 -44 52 c-82 97 -321 309 -491 438 -522 394 -1113 653 -1767 773 -347
63 -743 87 -1082 64z"/>
<path d="M6100 9664 c-524 -65 -980 -261 -1412 -606 -134 -107 -362 -335 -467
-468 -458 -577 -691 -1286 -651 -1979 24 -420 120 -779 312 -1162 231 -463
574 -860 973 -1126 87 -58 196 -123 207 -123 3 0 -63 66 -146 148 -290 283
-531 556 -505 573 38 24 464 140 639 174 47 9 92 18 101 21 11 3 21 -8 34 -36
10 -23 22 -43 27 -46 4 -3 31 7 58 23 50 28 53 33 36 74 -6 13 10 18 89 32 88
16 110 25 265 110 93 50 169 95 170 98 0 7 -284 -25 -436 -51 -165 -27 -158
-28 -182 28 -66 153 -158 459 -207 686 -48 221 -96 647 -76 669 4 4 299 6 657
5 l649 -3 2 -225 c1 -124 5 -370 9 -546 l6 -322 64 37 64 36 1 190 c1 105 4
334 8 510 l6 320 425 6 425 7 123 64 123 65 -383 6 c-211 4 -458 7 -550 7
l-168 0 0 610 0 610 48 0 c196 0 725 44 922 76 47 7 88 10 91 6 14 -14 99
-292 137 -447 49 -196 78 -367 100 -592 l17 -171 74 34 74 34 -7 108 c-15 245
-96 633 -191 912 -25 74 -45 139 -45 145 0 7 51 22 117 35 191 37 481 112 618
160 l60 21 38 -43 c21 -24 77 -98 124 -165 48 -67 89 -120 92 -118 8 9 -146
303 -211 400 -218 329 -547 640 -898 849 -265 158 -535 261 -840 318 -81 15
-159 20 -340 23 -129 2 -251 1 -270 -1z m137 -411 c-4 -141 -7 -427 -7 -636
l0 -380 -182 6 c-295 11 -788 54 -805 71 -11 11 100 246 188 401 184 324 376
573 562 729 59 50 93 61 211 65 l39 1 -6 -257z m370 210 c112 -76 313 -307
458 -528 145 -221 341 -609 315 -625 -30 -19 -480 -57 -777 -66 l-213 -7 0
638 0 638 83 -7 c72 -6 89 -12 134 -43z m225 -8 c405 -85 852 -335 1239 -691
97 -89 254 -253 248 -258 -22 -21 -449 -119 -741 -170 -25 -5 -30 2 -111 167
-47 95 -114 220 -149 278 -145 240 -345 484 -527 642 -29 26 -48 47 -43 47 6
0 44 -7 84 -15z m-1070 -101 c-236 -222 -485 -580 -627 -902 l-50 -113 -55 6
c-138 14 -640 131 -662 153 -10 10 139 179 258 291 236 224 525 413 817 535
129 55 363 129 422 135 5 1 -41 -47 -103 -105z m-1371 -1012 c119 -38 344 -95
503 -128 66 -13 121 -25 122 -27 2 -1 -17 -62 -42 -136 -114 -337 -197 -780
-207 -1111 l-2 -75 -509 0 -509 0 2 75 c9 292 111 678 269 1012 90 191 242
434 266 425 6 -2 54 -18 107 -35z m874 -192 c131 -22 453 -50 703 -62 l262
-12 0 -608 0 -608 -655 0 -655 0 6 93 c8 138 33 357 55 492 45 262 176 715
209 715 8 0 42 -5 75 -10z m-498 -1510 c15 -386 119 -858 273 -1242 28 -67 50
-126 50 -130 0 -5 -8 -8 -17 -8 -65 0 -575 -146 -753 -215 -11 -4 -33 22 -78
95 -244 391 -393 768 -462 1173 -20 118 -42 375 -34 389 3 4 233 7 512 6 l507
-3 2 -65z"/>
<path d="M10045 8278 c-77 -45 -381 -220 -675 -388 l-535 -307 -2 -2537 -3
-2538 33 8 c56 12 333 113 496 180 200 84 483 221 683 332 l158 87 0 2623 c0
1442 -3 2622 -7 2621 -5 0 -71 -37 -148 -81z"/>
<path d="M8100 6691 c-184 -104 -499 -281 -700 -394 l-365 -206 -3 -1937 -2
-1937 207 6 c362 11 693 54 1071 138 l142 32 0 2244 c0 1234 -3 2243 -7 2242
-5 0 -159 -85 -343 -188z"/>
<path d="M6530 5368 c-262 -148 -774 -442 -980 -561 l-215 -125 0 -1083 0
-1084 181 -61 c330 -110 719 -189 1052 -211 l92 -6 0 1601 c0 881 -1 1602 -2
1601 -2 0 -59 -32 -128 -71z"/>
</g>
</svg>
