<?xml version="1.0" standalone="no"?>
<!DOCTYPE svg PUBLIC "-//W3C//DTD SVG 20010904//EN"
 "http://www.w3.org/TR/2001/REC-SVG-20010904/DTD/svg10.dtd">
<svg version="1.0" xmlns="http://www.w3.org/2000/svg"
 width="512.000000pt" height="512.000000pt" viewBox="0 0 512.000000 512.000000"
 preserveAspectRatio="xMidYMid meet">

<g transform="translate(0.000000,512.000000) scale(0.100000,-0.100000)"
fill="#000000" stroke="none">
<path d="M4122 4692 c-12 -2 -40 -20 -60 -40 -60 -58 -335 -367 -800 -900
-238 -271 -433 -493 -436 -495 -2 -1 -194 264 -426 588 -488 681 -494 689
-557 745 -100 88 -53 82 -713 90 -328 4 -599 3 -617 -2 -52 -14 -83 -60 -83
-121 0 -69 11 -86 231 -372 366 -475 1369 -1794 1374 -1807 5 -13 -89 -120
-1019 -1151 -292 -324 -552 -613 -578 -643 -51 -58 -61 -97 -30 -112 50 -27
338 -58 431 -47 55 6 57 7 161 113 122 125 395 429 904 1007 199 225 375 424
391 442 l30 32 105 -137 c384 -504 728 -969 825 -1116 62 -95 129 -186 148
-203 65 -57 64 -57 627 -49 552 7 649 13 680 41 31 28 25 74 -18 141 -51 78
-376 522 -1318 1803 l-312 423 597 652 c973 1062 925 1006 919 1069 l-3 32
-90 6 c-128 10 -336 16 -363 11z m-2803 -306 c282 -13 315 -16 331 -32 29 -32
2533 -3545 2528 -3549 -2 -2 -131 -1 -287 3 l-284 7 -1329 1775 c-731 976
-1334 1783 -1339 1793 -12 21 -35 21 380 3z"/>
</g>
</svg>
