<svg id="Layer_13" data-name="Layer 13" xmlns="http://www.w3.org/2000/svg" viewBox="0 0 512 512"><defs><style>.cls-1{fill:#969696;}</style></defs><path d="M190.31,426.11c1,16.15,3.24,43.85,4.09,49l0,.19c3,17.06,17.58,31.63,34.64,34.64l.19,0a172.92,172.92,0,0,0,53.48,0l.19,0c17.06-3,31.63-17.58,34.64-34.64l0-.19c.85-5.09,3.1-32.81,4.09-49a218.14,218.14,0,0,0,88.5-362.22A218.06,218.06,0,0,0,101.81,372.28,217,217,0,0,0,190.31,426.11Zm89.82,42.62a6.52,6.52,0,0,1-3.77,3.74,135.36,135.36,0,0,1-40.72,0,6.55,6.55,0,0,1-3.77-3.72c-.45-3.29-1.88-20.11-2.91-34.25a222.39,222.39,0,0,0,54.08,0C282,448.53,280.62,465.3,280.13,468.73ZM256,38c99.29,0,180.06,80.78,180.06,180.06S355.29,398.15,256,398.15,75.94,317.37,75.94,218.08,156.71,38,256,38Z"/><path class="cls-1" d="M162,332.13a19,19,0,1,0,24.19-29.3c-2-1.68-4-3.43-5.89-5.24,2.41-3.32,4.81-6.65,7.22-10a12.12,12.12,0,0,0-15.21-18l-10.37,5.12a110.05,110.05,0,0,1-12.74-82.06c4,.48,8,1,12,1.44,12.71,1.48,18.85-14.73,8.36-22.05q-4.89-3.36-9.77-6.76a110.05,110.05,0,0,1,81.49-56c1,4,2,8.08,3,12.11,3.12,12.41,20.45,12.41,23.58,0q1.48-6,3-12.11a110.05,110.05,0,0,1,81.5,56q-4.87,3.39-9.77,6.76c-10.49,7.32-4.35,23.53,8.36,22.05,4-.49,8-1,12-1.44a110.05,110.05,0,0,1-12.74,82.06l-10.37-5.12a12.12,12.12,0,0,0-15.21,18c2.41,3.31,4.81,6.64,7.22,10-1.9,1.81-3.85,3.56-5.89,5.24a19,19,0,1,0,24.19,29.3,147.41,147.41,0,0,0,53.77-114c0-81.51-66.31-147.82-147.82-147.82S108.18,136.57,108.18,218.08A147.38,147.38,0,0,0,162,332.13Z"/><path d="M289,150.28c-19,18.07-38.26,36-56.39,54.58-6.92,7.09-9.31,17.57-6.85,27.47A30,30,0,0,0,261,254.89h0c10-1.92,18.53-8.48,22.06-17.74,9.3-24.26,17.45-49.29,25.9-74.07C313.07,150.86,298.36,141.46,289,150.28Z"/><path d="M227.55,322.58a19,19,0,1,0,19,19A19,19,0,0,0,227.55,322.58Z"/><path d="M284.45,322.58a19,19,0,1,0,19,19A19,19,0,0,0,284.45,322.58Z"/></svg>