<?xml version="1.0" ?><svg xmlns="http://www.w3.org/2000/svg" viewBox="0 0 64 64"><g id="Solid"><path d="M54.5,9H9.5a.5.5,0,0,0-.5.5v28a.5.5,0,0,0,.5.5h6.4023a.5.5,0,0,0,.5-.4946,17.2478,17.2478,0,0,0-2.6279-9.76c.7066-.8461,2.3956-3.3989,2.9309-8.8441a4.8082,4.8082,0,0,0,2.0012.4193,5.7988,5.7988,0,0,0,4.7193-2.7192A4.7868,4.7868,0,0,0,32,16.7231a4.7868,4.7868,0,0,0,8.5742-.1215,5.8021,5.8021,0,0,0,4.72,2.7192,4.8066,4.8066,0,0,0,2-.4191c.5357,5.4451,2.2242,7.9978,2.93,8.8439a17.2618,17.2618,0,0,0-2.6269,9.76.5.5,0,0,0,.5.4946H54.5a.5.5,0,0,0,.5-.5V9.5A.5.5,0,0,0,54.5,9ZM15.4014,37H10V28h2.73c.004.0057.005.0125.0094.0181A15.78,15.78,0,0,1,15.4014,37ZM48.2477,18.3265A7.3451,7.3451,0,0,0,50.57,14.8237a.5.5,0,0,0-.9668-.2568c-.041.1533-1.0459,3.7539-4.31,3.7539-2.9,0-4.3193-2.998-4.3339-3.0283a.5.5,0,0,0-.9327.0635c-.0371.1211-.9423,2.9648-3.7744,2.9648s-3.7373-2.8437-3.7744-2.9648a.5209.5209,0,0,0-.957,0c-.0371.1211-.9429,2.9648-3.7744,2.9648s-3.7368-2.8437-3.774-2.9648a.5.5,0,0,0-.9326-.0635c-.0141.03-1.4341,3.0283-4.334,3.0283-3.2646,0-4.269-3.6006-4.31-3.7539a.5.5,0,0,0-.9663.2568,7.3437,7.3437,0,0,0,2.323,3.5031c-.4409,5.3158-2.0136,7.84-2.6665,8.6732H10V10H54V27H50.915C50.2619,26.1638,48.6886,23.6429,48.2477,18.3265ZM48.5986,37a15.7707,15.7707,0,0,1,2.6621-8.9819c.0044-.0055.0053-.0124.0094-.0181H54v9ZM45,34.5a.5.5,0,0,1-.5.5h-25a.5.5,0,0,1,0-1h25A.5.5,0,0,1,45,34.5ZM52.5,54H49v-.63c0-3.2234-1.0546-5.3281-2.9224-6.0616A3.2361,3.2361,0,0,0,47,45a2.7873,2.7873,0,0,0-2.5-3A2.7873,2.7873,0,0,0,42,45a3.2361,3.2361,0,0,0,.9224,2.308C41.0546,48.0415,40,50.1462,40,53.37V54H36.5v-.63c0-3.2234-1.0546-5.3281-2.9224-6.0616A3.2361,3.2361,0,0,0,34.5,45,2.7873,2.7873,0,0,0,32,42a2.7877,2.7877,0,0,0-2.5,3,3.2364,3.2364,0,0,0,.9224,2.3079C28.5544,48.0413,27.5,50.1461,27.5,53.37V54H24v-.63c0-3.2235-1.0544-5.3283-2.9224-6.0617A3.2364,3.2364,0,0,0,22,45a2.7877,2.7877,0,0,0-2.5-3A2.7877,2.7877,0,0,0,17,45a3.2364,3.2364,0,0,0,.9224,2.3079C16.0544,48.0413,15,50.1461,15,53.37V54H11.5a.5.5,0,0,0,0,1h41a.5.5,0,0,0,0-1Zm-8-11c.8271,0,1.5.897,1.5,2s-.6729,2-1.5,2S43,46.103,43,45,43.6729,43,44.5,43ZM32,43c.8271,0,1.5.897,1.5,2s-.6729,2-1.5,2-1.5-.897-1.5-2S31.1729,43,32,43ZM19.5,43c.8271,0,1.5.897,1.5,2s-.6729,2-1.5,2S18,46.103,18,45,18.6729,43,19.5,43Zm9.2759-15.46-.1651,2.9019a.4994.4994,0,0,0,.68.4941L32,29.8828l2.708,1.0532a.5.5,0,0,0,.6807-.4941l-.1651-2.9014L37.0625,25.29a.4993.4993,0,0,0-.26-.8l-2.8105-.74L32.42,21.3057a.5.5,0,0,0-.8408,0L30.0073,23.75l-2.8105.74a.5.5,0,0,0-.26.8Z"/></g></svg>